<?xml version="1.0" encoding="UTF-8"?>
<!--Generator: Apple Native CoreSVG 175.5-->
<!DOCTYPE svg
PUBLIC "-//W3C//DTD SVG 1.1//EN"
       "http://www.w3.org/Graphics/SVG/1.1/DTD/svg11.dtd">
<svg version="1.1" xmlns="http://www.w3.org/2000/svg" xmlns:xlink="http://www.w3.org/1999/xlink" width="3300" height="2200">
 <!--glyph: "uni10014C.medium", point size: 100.0, font version: "18.0d9e1", template writer version: "84"-->
 <g id="Notes">
  <rect height="2200" id="artboard" style="fill:white;opacity:1" width="3300" x="0" y="0"/>
  <line style="fill:none;stroke:black;opacity:1;stroke-width:0.5;" x1="263" x2="3036" y1="292" y2="292"/>
  <text style="stroke:none;fill:black;font-family:sans-serif;font-size:13;font-weight:bold;" transform="matrix(1 0 0 1 263 322)">Weight/Scale Variations</text>
  <text style="stroke:none;fill:black;font-family:sans-serif;font-size:13;text-anchor:middle;" transform="matrix(1 0 0 1 559.711 322)">Ultralight</text>
  <text style="stroke:none;fill:black;font-family:sans-serif;font-size:13;text-anchor:middle;" transform="matrix(1 0 0 1 856.422 322)">Thin</text>
  <text style="stroke:none;fill:black;font-family:sans-serif;font-size:13;text-anchor:middle;" transform="matrix(1 0 0 1 1153.13 322)">Light</text>
  <text style="stroke:none;fill:black;font-family:sans-serif;font-size:13;text-anchor:middle;" transform="matrix(1 0 0 1 1449.84 322)">Regular</text>
  <text style="stroke:none;fill:black;font-family:sans-serif;font-size:13;text-anchor:middle;" transform="matrix(1 0 0 1 1746.56 322)">Medium</text>
  <text style="stroke:none;fill:black;font-family:sans-serif;font-size:13;text-anchor:middle;" transform="matrix(1 0 0 1 2043.27 322)">Semibold</text>
  <text style="stroke:none;fill:black;font-family:sans-serif;font-size:13;text-anchor:middle;" transform="matrix(1 0 0 1 2339.98 322)">Bold</text>
  <text style="stroke:none;fill:black;font-family:sans-serif;font-size:13;text-anchor:middle;" transform="matrix(1 0 0 1 2636.69 322)">Heavy</text>
  <text style="stroke:none;fill:black;font-family:sans-serif;font-size:13;text-anchor:middle;" transform="matrix(1 0 0 1 2933.4 322)">Black</text>
  <line style="fill:none;stroke:black;opacity:1;stroke-width:0.5;" x1="263" x2="3036" y1="1903" y2="1903"/>
  <g transform="matrix(1 0 0 1 263 1933)">
   <path d="M9.24805 0.830078Q10.8691 0.830078 12.2949 0.214844Q13.7207-0.400391 14.8096-1.49414Q15.8984-2.58789 16.5186-4.01367Q17.1387-5.43945 17.1387-7.05078Q17.1387-8.66211 16.5186-10.0879Q15.8984-11.5137 14.8047-12.6074Q13.7109-13.7012 12.2852-14.3164Q10.8594-14.9316 9.23828-14.9316Q7.62695-14.9316 6.20117-14.3164Q4.77539-13.7012 3.69141-12.6074Q2.60742-11.5137 1.9873-10.0879Q1.36719-8.66211 1.36719-7.05078Q1.36719-5.43945 1.9873-4.01367Q2.60742-2.58789 3.69629-1.49414Q4.78516-0.400391 6.21094 0.214844Q7.63672 0.830078 9.24805 0.830078ZM9.24805-0.654297Q7.91992-0.654297 6.7627-1.14746Q5.60547-1.64062 4.73145-2.51953Q3.85742-3.39844 3.36426-4.56055Q2.87109-5.72266 2.87109-7.05078Q2.87109-8.37891 3.35938-9.54102Q3.84766-10.7031 4.72168-11.582Q5.5957-12.4609 6.75293-12.9541Q7.91016-13.4473 9.23828-13.4473Q10.5762-13.4473 11.7383-12.9541Q12.9004-12.4609 13.7793-11.582Q14.6582-10.7031 15.1514-9.54102Q15.6445-8.37891 15.6445-7.05078Q15.6445-5.72266 15.1514-4.56055Q14.6582-3.39844 13.7793-2.51953Q12.9004-1.64062 11.7432-1.14746Q10.5859-0.654297 9.24805-0.654297ZM5.6543-7.05078Q5.6543-6.72852 5.85938-6.52832Q6.06445-6.32812 6.40625-6.32812L8.51562-6.32812L8.51562-4.20898Q8.51562-3.88672 8.71094-3.67676Q8.90625-3.4668 9.23828-3.4668Q9.56055-3.4668 9.77051-3.67676Q9.98047-3.88672 9.98047-4.20898L9.98047-6.32812L12.0898-6.32812Q12.4219-6.32812 12.627-6.52832Q12.832-6.72852 12.832-7.05078Q12.832-7.38281 12.627-7.58789Q12.4219-7.79297 12.0898-7.79297L9.98047-7.79297L9.98047-9.90234Q9.98047-10.2344 9.77051-10.4443Q9.56055-10.6543 9.23828-10.6543Q8.90625-10.6543 8.71094-10.4443Q8.51562-10.2344 8.51562-9.90234L8.51562-7.79297L6.40625-7.79297Q6.06445-7.79297 5.85938-7.58789Q5.6543-7.38281 5.6543-7.05078Z"/>
  </g>
  <g transform="matrix(1 0 0 1 281.867 1933)">
   <path d="M11.709 2.91016Q13.75 2.91016 15.5518 2.12891Q17.3535 1.34766 18.7305-0.0292969Q20.1074-1.40625 20.8887-3.20801Q21.6699-5.00977 21.6699-7.05078Q21.6699-9.0918 20.8887-10.8936Q20.1074-12.6953 18.7305-14.0723Q17.3535-15.4492 15.5469-16.2305Q13.7402-17.0117 11.6992-17.0117Q9.6582-17.0117 7.85645-16.2305Q6.05469-15.4492 4.68262-14.0723Q3.31055-12.6953 2.5293-10.8936Q1.74805-9.0918 1.74805-7.05078Q1.74805-5.00977 2.5293-3.20801Q3.31055-1.40625 4.6875-0.0292969Q6.06445 1.34766 7.86621 2.12891Q9.66797 2.91016 11.709 2.91016ZM11.709 1.25Q9.98047 1.25 8.47656 0.605469Q6.97266-0.0390625 5.83496-1.17676Q4.69727-2.31445 4.05762-3.81836Q3.41797-5.32227 3.41797-7.05078Q3.41797-8.7793 4.05762-10.2832Q4.69727-11.7871 5.83008-12.9297Q6.96289-14.0723 8.4668-14.7119Q9.9707-15.3516 11.6992-15.3516Q13.4277-15.3516 14.9365-14.7119Q16.4453-14.0723 17.583-12.9297Q18.7207-11.7871 19.3652-10.2832Q20.0098-8.7793 20.0098-7.05078Q20.0098-5.32227 19.3701-3.81836Q18.7305-2.31445 17.5879-1.17676Q16.4453-0.0390625 14.9414 0.605469Q13.4375 1.25 11.709 1.25ZM7.17773-7.05078Q7.17773-6.69922 7.41211-6.47461Q7.64648-6.25 8.01758-6.25L10.8887-6.25L10.8887-3.36914Q10.8887-2.99805 11.1133-2.76855Q11.3379-2.53906 11.6895-2.53906Q12.0605-2.53906 12.29-2.76855Q12.5195-2.99805 12.5195-3.36914L12.5195-6.25L15.4004-6.25Q15.7715-6.25 16.001-6.47461Q16.2305-6.69922 16.2305-7.05078Q16.2305-7.42188 16.001-7.65137Q15.7715-7.88086 15.4004-7.88086L12.5195-7.88086L12.5195-10.752Q12.5195-11.1328 12.29-11.3623Q12.0605-11.5918 11.6895-11.5918Q11.3379-11.5918 11.1133-11.3574Q10.8887-11.123 10.8887-10.752L10.8887-7.88086L8.01758-7.88086Q7.63672-7.88086 7.40723-7.65137Q7.17773-7.42188 7.17773-7.05078Z"/>
  </g>
  <g transform="matrix(1 0 0 1 305.646 1933)">
   <path d="M14.9707 5.66406Q17.0605 5.66406 18.96 5.01465Q20.8594 4.36523 22.4512 3.19336Q24.043 2.02148 25.2197 0.429688Q26.3965-1.16211 27.0459-3.06641Q27.6953-4.9707 27.6953-7.05078Q27.6953-9.14062 27.0459-11.04Q26.3965-12.9395 25.2197-14.5312Q24.043-16.123 22.4512-17.2998Q20.8594-18.4766 18.9551-19.126Q17.0508-19.7754 14.9609-19.7754Q12.8711-19.7754 10.9717-19.126Q9.07227-18.4766 7.48535-17.2998Q5.89844-16.123 4.72168-14.5312Q3.54492-12.9395 2.90039-11.04Q2.25586-9.14062 2.25586-7.05078Q2.25586-4.9707 2.90527-3.06641Q3.55469-1.16211 4.72656 0.429688Q5.89844 2.02148 7.49023 3.19336Q9.08203 4.36523 10.9814 5.01465Q12.8809 5.66406 14.9707 5.66406ZM14.9707 3.84766Q13.1641 3.84766 11.5283 3.2959Q9.89258 2.74414 8.53516 1.74805Q7.17773 0.751953 6.17676-0.610352Q5.17578-1.97266 4.62891-3.6084Q4.08203-5.24414 4.08203-7.05078Q4.08203-8.86719 4.62891-10.5029Q5.17578-12.1387 6.17188-13.501Q7.16797-14.8633 8.52539-15.8594Q9.88281-16.8555 11.5186-17.4023Q13.1543-17.9492 14.9609-17.9492Q16.7773-17.9492 18.4131-17.4023Q20.0488-16.8555 21.4111-15.8594Q22.7734-14.8633 23.7744-13.501Q24.7754-12.1387 25.3223-10.5029Q25.8691-8.86719 25.8691-7.05078Q25.8691-5.24414 25.3223-3.6084Q24.7754-1.97266 23.7793-0.610352Q22.7832 0.751953 21.4209 1.74805Q20.0586 2.74414 18.4229 3.2959Q16.7871 3.84766 14.9707 3.84766ZM9.19922-7.05078Q9.19922-6.66992 9.45801-6.4209Q9.7168-6.17188 10.1172-6.17188L14.0625-6.17188L14.0625-2.2168Q14.0625-1.81641 14.3115-1.55762Q14.5605-1.29883 14.9512-1.29883Q15.3516-1.29883 15.6104-1.55273Q15.8691-1.80664 15.8691-2.2168L15.8691-6.17188L19.8242-6.17188Q20.2246-6.17188 20.4785-6.4209Q20.7324-6.66992 20.7324-7.05078Q20.7324-7.46094 20.4785-7.71484Q20.2246-7.96875 19.8242-7.96875L15.8691-7.96875L15.8691-11.9141Q15.8691-12.3242 15.6104-12.583Q15.3516-12.8418 14.9512-12.8418Q14.5605-12.8418 14.3115-12.583Q14.0625-12.3242 14.0625-11.9141L14.0625-7.96875L10.1172-7.96875Q9.70703-7.96875 9.45312-7.71484Q9.19922-7.46094 9.19922-7.05078Z"/>
  </g>
  <text style="stroke:none;fill:black;font-family:sans-serif;font-size:13;font-weight:bold;" transform="matrix(1 0 0 1 263 1953)">Design Variations</text>
  <text style="stroke:none;fill:black;font-family:sans-serif;font-size:13;" transform="matrix(1 0 0 1 263 1971)">Symbols are supported in up to nine weights and three scales.</text>
  <text style="stroke:none;fill:black;font-family:sans-serif;font-size:13;" transform="matrix(1 0 0 1 263 1989)">For optimal layout with text and other symbols, vertically align</text>
  <text style="stroke:none;fill:black;font-family:sans-serif;font-size:13;" transform="matrix(1 0 0 1 263 2007)">symbols with the adjacent text.</text>
  <line style="fill:none;stroke:#00AEEF;stroke-width:0.5;opacity:1.0;" x1="776" x2="776" y1="1919" y2="1933"/>
  <g transform="matrix(1 0 0 1 776 1933)">
   <path d="M3.31055 0.15625Q3.70117 0.15625 3.91602-0.00976562Q4.13086-0.175781 4.26758-0.585938L5.52734-4.0332L11.2891-4.0332L12.5488-0.585938Q12.6855-0.175781 12.9004-0.00976562Q13.1152 0.15625 13.4961 0.15625Q13.8867 0.15625 14.1162-0.0585938Q14.3457-0.273438 14.3457-0.644531Q14.3457-0.869141 14.2383-1.17188L9.6582-13.3691Q9.48242-13.8184 9.17969-14.043Q8.87695-14.2676 8.4082-14.2676Q7.5-14.2676 7.17773-13.3789L2.59766-1.16211Q2.49023-0.859375 2.49023-0.634766Q2.49023-0.263672 2.70996-0.0537109Q2.92969 0.15625 3.31055 0.15625ZM6.00586-5.51758L8.37891-12.0898L8.42773-12.0898L10.8008-5.51758Z"/>
  </g>
  <line style="fill:none;stroke:#00AEEF;stroke-width:0.5;opacity:1.0;" x1="793.197" x2="793.197" y1="1919" y2="1933"/>
  <text style="stroke:none;fill:black;font-family:sans-serif;font-size:13;font-weight:bold;" transform="matrix(1 0 0 1 776 1953)">Margins</text>
  <text style="stroke:none;fill:black;font-family:sans-serif;font-size:13;" transform="matrix(1 0 0 1 776 1971)">Leading and trailing margins on the left and right side of each symbol</text>
  <text style="stroke:none;fill:black;font-family:sans-serif;font-size:13;" transform="matrix(1 0 0 1 776 1989)">can be adjusted by modifying the x-location of the margin guidelines.</text>
  <text style="stroke:none;fill:black;font-family:sans-serif;font-size:13;" transform="matrix(1 0 0 1 776 2007)">Modifications are automatically applied proportionally to all</text>
  <text style="stroke:none;fill:black;font-family:sans-serif;font-size:13;" transform="matrix(1 0 0 1 776 2025)">scales and weights.</text>
  <g transform="matrix(1 0 0 1 1289 1933)">
   <path d="M2.8418 1.86523L4.54102 3.57422Q5.18555 4.22852 5.90332 4.17969Q6.62109 4.13086 7.31445 3.35938L18.0078-8.42773L17.041-9.4043L6.42578 2.27539Q6.16211 2.57812 5.89355 2.61719Q5.625 2.65625 5.27344 2.30469L4.10156 1.14258Q3.75 0.791016 3.79395 0.522461Q3.83789 0.253906 4.14062-0.0195312L15.6152-10.8203L14.6387-11.7871L3.04688-0.898438Q2.30469-0.214844 2.25098 0.498047Q2.19727 1.21094 2.8418 1.86523ZM9.25781-16.3281Q8.94531-16.0254 8.90625-15.6348Q8.86719-15.2441 9.04297-14.9512Q9.21875-14.6777 9.55566-14.541Q9.89258-14.4043 10.3809-14.5215Q11.4746-14.7754 12.5977-14.7314Q13.7207-14.6875 14.7949-13.9844L14.209-12.5293Q13.9551-11.9043 14.0674-11.4404Q14.1797-10.9766 14.5801-10.5664L16.875-8.25195Q17.2363-7.88086 17.5781-7.82227Q17.9199-7.76367 18.3398-7.8418L19.4043-8.03711L20.0684-7.36328L20.0293-6.80664Q20-6.43555 20.1221-6.12305Q20.2441-5.81055 20.6055-5.44922L21.3672-4.70703Q21.7285-4.3457 22.1533-4.33105Q22.5781-4.31641 22.9297-4.66797L25.8398-7.58789Q26.1914-7.93945 26.1816-8.35449Q26.1719-8.76953 25.8105-9.13086L25.0391-9.89258Q24.6875-10.2539 24.3799-10.3857Q24.0723-10.5176 23.7109-10.4883L23.1348-10.4395L22.4902-11.0742L22.7344-12.1973Q22.832-12.6172 22.6953-12.9834Q22.5586-13.3496 22.1191-13.7891L19.9219-15.9766Q18.6719-17.2168 17.2607-17.8369Q15.8496-18.457 14.4189-18.4814Q12.9883-18.5059 11.665-17.959Q10.3418-17.4121 9.25781-16.3281ZM10.752-15.957Q11.6602-16.6211 12.7002-16.9043Q13.7402-17.1875 14.8047-17.085Q15.8691-16.9824 16.8701-16.5137Q17.8711-16.0449 18.7012-15.2051L21.1328-12.793Q21.3086-12.6172 21.3525-12.4512Q21.3965-12.2852 21.3379-12.0312L21.0156-10.5469L22.5195-9.0625L23.5059-9.12109Q23.6914-9.13086 23.7891-9.09668Q23.8867-9.0625 24.0332-8.91602L24.6094-8.33984L22.168-5.89844L21.5918-6.47461Q21.4453-6.62109 21.4062-6.71875Q21.3672-6.81641 21.377-7.01172L21.4453-7.98828L19.9512-9.47266L18.4277-9.21875Q18.1836-9.16992 18.042-9.2041Q17.9004-9.23828 17.7148-9.41406L15.7129-11.416Q15.5176-11.5918 15.4932-11.7529Q15.4688-11.9141 15.5859-12.1875L16.4648-14.2773Q15.293-15.3711 13.8281-15.791Q12.3633-16.2109 10.8398-15.7617Q10.7227-15.7324 10.6885-15.8057Q10.6543-15.8789 10.752-15.957Z"/>
  </g>
  <text style="stroke:none;fill:black;font-family:sans-serif;font-size:13;font-weight:bold;" transform="matrix(1 0 0 1 1289 1953)">Exporting</text>
  <text style="stroke:none;fill:black;font-family:sans-serif;font-size:13;" transform="matrix(1 0 0 1 1289 1971)">Symbols should be outlined when exporting to ensure the</text>
  <text style="stroke:none;fill:black;font-family:sans-serif;font-size:13;" transform="matrix(1 0 0 1 1289 1989)">design is preserved when submitting to Xcode.</text>
  <text id="template-version" style="stroke:none;fill:black;font-family:sans-serif;font-size:13;text-anchor:end;" transform="matrix(1 0 0 1 3036 1933)">Template v.2.0</text>
  <text style="stroke:none;fill:black;font-family:sans-serif;font-size:13;text-anchor:end;" transform="matrix(1 0 0 1 3036 1951)">Requires Xcode 12 or greater</text>
  <text id="descriptive-name" style="stroke:none;fill:black;font-family:sans-serif;font-size:13;text-anchor:end;" transform="matrix(1 0 0 1 3036 1969)">Generated from arrow.2.squarepath</text>
  <text style="stroke:none;fill:black;font-family:sans-serif;font-size:13;text-anchor:end;" transform="matrix(1 0 0 1 3036 1987)">Typeset at 100 points</text>
  <text style="stroke:none;fill:black;font-family:sans-serif;font-size:13;" transform="matrix(1 0 0 1 263 726)">Small</text>
  <text style="stroke:none;fill:black;font-family:sans-serif;font-size:13;" transform="matrix(1 0 0 1 263 1156)">Medium</text>
  <text style="stroke:none;fill:black;font-family:sans-serif;font-size:13;" transform="matrix(1 0 0 1 263 1586)">Large</text>
 </g>
 <g id="Guides">
  <g id="H-reference" style="fill:#27AAE1;stroke:none;" transform="matrix(1 0 0 1 339 696)">
   <path d="M0.993347 0L3.6377 0L29.3282-67.1326L30.0301-67.1326L30.0301-70.459L28.1227-70.459ZM11.6882-24.4797L46.9818-24.4797L46.2311-26.7288L12.4382-26.7288ZM55.1193 0L57.7637 0L30.6381-70.459L29.4327-70.459L29.4327-67.1326Z"/>
  </g>
  <line id="Baseline-S" style="fill:none;stroke:#27AAE1;opacity:1;stroke-width:0.5;" x1="263" x2="3036" y1="696" y2="696"/>
  <line id="Capline-S" style="fill:none;stroke:#27AAE1;opacity:1;stroke-width:0.5;" x1="263" x2="3036" y1="625.541" y2="625.541"/>
  <g id="H-reference" style="fill:#27AAE1;stroke:none;" transform="matrix(1 0 0 1 339 1126)">
   <path d="M0.993347 0L3.6377 0L29.3282-67.1326L30.0301-67.1326L30.0301-70.459L28.1227-70.459ZM11.6882-24.4797L46.9818-24.4797L46.2311-26.7288L12.4382-26.7288ZM55.1193 0L57.7637 0L30.6381-70.459L29.4327-70.459L29.4327-67.1326Z"/>
  </g>
  <line id="Baseline-M" style="fill:none;stroke:#27AAE1;opacity:1;stroke-width:0.5;" x1="263" x2="3036" y1="1126" y2="1126"/>
  <line id="Capline-M" style="fill:none;stroke:#27AAE1;opacity:1;stroke-width:0.5;" x1="263" x2="3036" y1="1055.54" y2="1055.54"/>
  <g id="H-reference" style="fill:#27AAE1;stroke:none;" transform="matrix(1 0 0 1 339 1556)">
   <path d="M0.993347 0L3.6377 0L29.3282-67.1326L30.0301-67.1326L30.0301-70.459L28.1227-70.459ZM11.6882-24.4797L46.9818-24.4797L46.2311-26.7288L12.4382-26.7288ZM55.1193 0L57.7637 0L30.6381-70.459L29.4327-70.459L29.4327-67.1326Z"/>
  </g>
  <line id="Baseline-L" style="fill:none;stroke:#27AAE1;opacity:1;stroke-width:0.5;" x1="263" x2="3036" y1="1556" y2="1556"/>
  <line id="Capline-L" style="fill:none;stroke:#27AAE1;opacity:1;stroke-width:0.5;" x1="263" x2="3036" y1="1485.54" y2="1485.54"/>
  <line id="left-margin" style="fill:none;stroke:#00AEEF;stroke-width:0.5;opacity:1.0;" x1="1376.94" x2="1376.94" y1="1030.79" y2="1150.12"/>
  <line id="right-margin" style="fill:none;stroke:#00AEEF;stroke-width:0.5;opacity:1.0;" x1="1522.75" x2="1522.75" y1="1030.79" y2="1150.12"/>
 </g>
 <g id="Symbols">
  <g id="Black-L" transform="matrix(1 0 0 1 2832.82 1556)">
   <path d="M19.1774-46.2155Q22.2333-43.1012 26.2043-43.1045Q30.1754-43.1077 33.3492-46.2595L35.3452-48.2543L42.4665-56.7551L42.4665 2.71334Q42.4665 14.0405 48.6686 20.2315Q54.8706 26.4225 66.2382 26.4225L108.301 26.4225Q112.86 26.4225 115.738 23.6258Q118.616 20.829 118.595 16.432Q118.574 12.0155 115.717 9.21808Q112.86 6.4207 108.301 6.4207L68.9689 6.4207Q65.7609 6.4207 64.1042 4.87247Q62.4475 3.32424 62.4475-0.12147L62.4475-56.7967L69.5908-48.2543L71.5868-46.2595Q74.7595-43.1089 78.7305-43.1051Q82.7016-43.1012 85.7586-46.2155Q88.7949-49.331 88.8417-53.2832Q88.8885-57.2355 85.7158-60.3873L63.3771-82.7052Q58.1831-87.8784 52.4284-87.8492Q46.6737-87.82 41.5382-82.7052L19.2203-60.3873Q16.0476-57.2355 16.084-53.2832Q16.1204-49.331 19.1774-46.2155ZM82.574-86.7874Q82.574-82.3916 85.4312-79.5943Q88.2884-76.7969 92.8478-76.7969L132.2-76.7969Q135.467-76.7969 137.094-75.2674Q138.722-73.738 138.722-70.2547L138.722-13.5795L131.578-22.1219L129.582-24.0958Q126.41-27.2673 122.439-27.2711Q118.468-27.2749 115.412-24.1398Q112.355-21.0452 112.318-17.093Q112.281-13.1407 115.455-9.98885L137.772 12.329Q142.965 17.5022 148.721 17.473Q154.476 17.4438 159.61 12.329L181.949-9.98885Q185.122-13.1407 185.075-17.093Q185.028-21.0452 181.992-24.1398Q178.936-27.2541 174.965-27.2613Q170.994-27.2685 167.821-24.0958L165.804-22.1219L158.703-13.6003L158.703-73.0895Q158.703-84.4167 152.491-90.6077Q146.279-96.7987 134.931-96.7987L92.8478-96.7987Q88.2884-96.7987 85.4208-94.0019Q82.5531-91.2052 82.574-86.7874Z"/>
  </g>
  <g id="Heavy-L" transform="matrix(1 0 0 1 2537.67 1556)">
   <path d="M18.7898-46.9083Q21.4811-44.1724 24.9643-44.2009Q28.4476-44.2295 31.2337-46.9799L34.2417-49.9823L41.9853-58.9079L41.9853 2.85893Q41.9853 13.7774 47.8724 19.6466Q53.7595 25.5159 64.7328 25.5159L109.193 25.5159Q113.271 25.5159 115.802 23.082Q118.334 20.6481 118.304 16.7656Q118.274 12.8587 115.772 10.422Q113.271 7.98525 109.193 7.98525L66.857 7.98525Q63.2496 7.98525 61.3677 6.20044Q59.4857 4.41562 59.4857 0.583809L59.4857-58.9683L67.2651-49.9823L70.273-46.9799Q73.0537-44.2351 76.5369-44.2038Q80.0201-44.1724 82.7171-46.9083Q85.3838-49.6499 85.4077-53.1259Q85.4317-56.6019 82.6511-59.3523L60.5001-81.4731Q55.8472-86.0958 50.716-86.0735Q45.5848-86.0512 40.9765-81.4731L18.8557-59.3523Q16.0752-56.6019 16.084-53.1259Q16.0928-49.6499 18.7898-46.9083ZM79.7316-87.1028Q79.7316-83.2261 82.2331-80.7893Q84.7346-78.3526 88.8126-78.3526L131.179-78.3526Q134.83-78.3526 136.69-76.575Q138.55-74.7973 138.55-70.9512L138.55-11.399L130.77-20.3851L127.762-23.3572Q124.982-26.1322 121.499-26.1636Q118.015-26.195 115.324-23.4288Q112.627-20.7175 112.616-17.2415Q112.604-13.7654 115.39-11.015L137.511 11.1057Q142.158 15.7285 147.292 15.7062Q152.426 15.6838 157.029 11.1057L179.18-11.015Q181.96-13.7654 181.936-17.2415Q181.913-20.7175 179.246-23.4288Q176.554-26.1648 173.071-26.1513Q169.588-26.1379 166.807-23.3572L163.769-20.3851L156.05-11.4293L156.05-73.2263Q156.05-84.1447 150.151-90.014Q144.251-95.8832 133.303-95.8832L88.8126-95.8832Q84.7346-95.8832 82.218-93.4493Q79.7014-91.0154 79.7316-87.1028Z"/>
  </g>
  <g id="Bold-L" transform="matrix(1 0 0 1 2242.78 1556)">
   <path d="M18.3133-47.5601Q20.5513-45.293 23.4313-45.3485Q26.3114-45.4041 28.6209-47.6626L32.8815-51.9099L41.4979-61.4849L41.4979 3.0432Q41.4979 13.4322 47.0006 18.9094Q52.5033 24.3866 62.9551 24.3866L110.523 24.3866Q113.979 24.3866 116.081 22.3947Q118.182 20.4029 118.144 17.1656Q118.106 13.9038 116.043 11.9052Q113.979 9.90672 110.523 9.90672L64.4009 9.90672Q60.2717 9.90672 58.1057 7.82246Q55.9396 5.7382 55.9396 1.40757L55.9396-61.5609L64.6072-51.9099L68.8676-47.6626Q71.1642-45.4174 74.0442-45.3552Q76.9241-45.293 79.1754-47.5601Q81.3886-49.8407 81.3857-52.7251Q81.3827-55.6095 79.0863-57.868L57.0169-79.8993Q53.0547-83.8234 48.7107-83.8088Q44.3667-83.7942 40.434-79.8993L18.4024-57.868Q16.106-55.6095 16.084-52.7251Q16.062-49.8407 18.3133-47.5601ZM76.2495-87.4798Q76.2495-84.2559 78.313-82.2573Q80.3765-80.2588 83.8328-80.2588L129.993-80.2588Q134.151-80.2588 136.302-78.1701Q138.454-76.0814 138.454-71.7597L138.454-8.79125L129.786-18.4422L125.526-22.6514Q123.229-24.9347 120.349-24.9969Q117.469-25.0591 115.231-22.7539Q112.98-20.5115 112.996-17.6271Q113.011-14.7427 115.321-12.4841L137.352 9.54721Q141.301 13.4713 145.652 13.4566Q150.002 13.442 153.922 9.54721L175.991-12.4841Q178.288-14.7427 178.291-17.6271Q178.294-20.5115 176.08-22.7539Q173.842-25.0213 170.962-24.9847Q168.082-24.948 165.786-22.6514L161.487-18.4422L152.896-8.82935L152.896-73.3953Q152.896-83.7843 147.381-89.2615Q141.865-94.7387 131.439-94.7387L83.8328-94.7387Q80.3765-94.7387 78.2941-92.7469Q76.2116-90.755 76.2495-87.4798Z"/>
  </g>
  <g id="Semibold-L" transform="matrix(1 0 0 1 1947.33 1556)">
   <path d="M17.9848-48.0095Q19.9103-46.0655 22.3745-46.1397Q24.8387-46.2138 26.8196-48.1332L31.9438-53.2388L41.1618-63.2614L41.1618 3.17024Q41.1618 13.1942 46.3995 18.4011Q51.6372 23.6081 61.7296 23.6081L111.44 23.6081Q114.467 23.6081 116.272 21.921Q118.077 20.2339 118.034 17.4413Q117.99 14.6242 116.229 12.9278Q114.467 11.2314 111.44 11.2314L62.7077 11.2314Q58.2188 11.2314 55.8569 8.94067Q53.495 6.64998 53.495 1.97547L53.495-63.3482L62.7748-53.2388L67.8987-48.1332Q69.8616-46.2325 72.3257-46.149Q74.7897-46.0655 76.7338-48.0095Q78.6344-49.9722 78.6129-52.4487Q78.5914-54.9253 76.6288-56.8447L54.6155-78.8144Q51.1296-82.2568 47.3283-82.2475Q43.5269-82.2382 40.0599-78.8144L18.0899-56.8447Q16.1273-54.9253 16.084-52.4487Q16.0407-49.9722 17.9848-48.0095ZM73.849-87.7397Q73.849-84.9658 75.6105-83.2694Q77.372-81.573 80.3999-81.573L129.175-81.573Q133.682-81.573 136.035-79.2698Q138.388-76.9666 138.388-72.3171L138.388-6.99345L129.108-17.1029L123.984-22.1649Q122.021-24.1092 119.557-24.1926Q117.093-24.2761 115.167-22.2886Q113.223-20.3694 113.257-17.8929Q113.292-15.4163 115.273-13.4969L137.243 8.47278Q140.71 11.9151 144.52 11.9059Q148.331 11.8966 151.78 8.47278L173.793-13.4969Q175.756-15.4163 175.777-17.8929Q175.799-20.3694 173.898-22.2886Q171.973-24.2329 169.508-24.1803Q167.044-24.1278 165.082-22.1649L159.914-17.1029L150.721-7.03698L150.721-73.5119Q150.721-83.5358 145.471-88.7427Q140.221-93.9497 130.153-93.9497L80.3999-93.9497Q77.372-93.9497 75.5889-92.2626Q73.8058-90.5755 73.849-87.7397Z"/>
  </g>
  <g id="Medium-L" transform="matrix(1 0 0 1 1651.57 1556)">
   <path d="M17.7357-48.3503Q19.4242-46.6513 21.5731-46.7395Q23.7221-46.8278 25.4538-48.4901L31.2328-54.2464L40.907-64.6085L40.907 3.26656Q40.907 13.0138 45.9438 18.0157Q50.9805 23.0177 60.8004 23.0177L112.135 23.0177Q114.838 23.0177 116.418 21.5617Q117.998 20.1057 117.95 17.6504Q117.903 15.1705 116.37 13.7031Q114.838 12.2358 112.135 12.2358L61.4238 12.2358Q56.6622 12.2358 54.1518 9.78855Q51.6413 7.34133 51.6413 2.40607L51.6413-64.7034L61.3855-54.2464L67.164-48.4901Q68.8739-46.8505 71.0227-46.7509Q73.1714-46.6513 74.8825-48.3503Q76.546-50.0719 76.5105-52.2392Q76.4749-54.4065 74.7654-56.0688L52.7947-77.9918Q49.6699-81.0689 46.2801-81.0636Q42.8902-81.0584 39.7763-77.9918L17.8529-56.0688Q16.1434-54.4065 16.084-52.2392Q16.0246-50.0719 17.7357-48.3503ZM72.0288-87.9368Q72.0288-85.5041 73.5614-84.0368Q75.0939-82.5694 77.7968-82.5694L128.555-82.5694Q133.327-82.5694 135.833-80.1036Q138.338-77.6379 138.338-72.7397L138.338-5.63029L128.593-16.0873L122.815-21.7959Q121.105-23.4832 118.956-23.5828Q116.807-23.6824 115.119-21.9357Q113.408-20.2617 113.456-18.0944Q113.504-15.9272 115.237-14.2649L137.16 7.6581Q140.262 10.7352 143.663 10.73Q147.064 10.7247 150.155 7.6581L172.126-14.2649Q173.836-15.9272 173.871-18.0944Q173.907-20.2617 172.244-21.9357Q170.555-23.6351 168.406-23.5705Q166.257-23.5058 164.548-21.7959L158.721-16.0873L149.072-5.67793L149.072-73.6002Q149.072-83.3474 144.023-88.3494Q138.973-93.3514 129.179-93.3514L77.7968-93.3514Q75.0939-93.3514 73.5377-91.8954Q71.9816-90.4394 72.0288-87.9368Z"/>
  </g>
  <g id="Regular-L" transform="matrix(1 0 0 1 1356.1 1556)">
   <path d="M17.4109-48.7947Q18.7903-47.4153 20.5279-47.522Q22.2656-47.6287 23.6724-48.9556L30.3054-55.5606L40.5747-66.3655L40.5747 3.3922Q40.5747 12.7784 45.3493 17.5131Q50.124 22.2478 59.5883 22.2478L113.042 22.2478Q115.321 22.2478 116.607 21.0931Q117.894 19.9385 117.841 17.9231Q117.788 15.883 116.555 14.7144Q115.321 13.5459 113.042 13.5459L59.7491 13.5459Q54.6319 13.5459 51.9277 10.8945Q49.2236 8.24309 49.2236 2.96773L49.2236-66.471L59.5733-55.5606L66.2058-48.9556Q67.5857-47.6566 69.3231-47.5359Q71.0605-47.4153 72.4678-48.7947Q73.8221-50.202 73.7681-51.9659Q73.7142-53.7298 72.3348-55.0567L50.4198-76.9187Q47.766-79.5195 44.9128-79.5195Q42.0596-79.5195 39.4063-76.9187L17.5438-55.0567Q16.1644-53.7298 16.084-51.9659Q16.0036-50.202 17.4109-48.7947ZM69.6547-88.1938Q69.6547-86.2063 70.8886-85.0377Q72.1225-83.8691 74.4015-83.8691L127.747-83.8691Q132.864-83.8691 135.568-81.1912Q138.273-78.5134 138.273-73.291L138.273-3.85226L127.922-14.7626L121.29-21.3147Q119.91-22.6667 118.173-22.7873Q116.435-22.908 115.056-21.4756Q113.648-20.1213 113.715-18.3574Q113.782-16.5934 115.189-15.2666L137.051 6.59548Q139.677 9.19623 142.544 9.19623Q145.411 9.19623 148.037 6.59548L169.952-15.2666Q171.332-16.5934 171.386-18.3574Q171.44-20.1213 170.085-21.4756Q168.706-22.8554 166.968-22.775Q165.231-22.6946 163.851-21.3147L157.166-14.7626L146.921-3.90526L146.921-73.7155Q146.921-83.1017 142.134-87.8363Q137.347-92.571 127.908-92.571L74.4015-92.571Q72.1225-92.571 70.8623-91.4164Q69.6021-90.2618 69.6547-88.1938Z"/>
  </g>
  <g id="Light-L" transform="matrix(1 0 0 1 1059.87 1556)">
   <path d="M17.1056-47.9168Q18.1605-46.8618 19.4879-46.9589Q20.8152-47.056 21.9165-48.0776L29.4085-55.5225L40.9373-67.5679L40.9373 3.54483Q40.9373 12.4157 45.4829 16.9215Q50.0284 21.4272 58.9204 21.4272L115.408 21.4272Q117.095 21.4272 118.077 20.5302Q119.058 19.6333 119.024 18.1139Q118.991 16.6083 118.043 15.6878Q117.095 14.7672 115.408 14.7672L59.0812 14.7672Q53.4294 14.7672 50.4963 11.8678Q47.5632 8.96841 47.5632 3.21592L47.5632-67.6353L59.1725-55.5225L66.6637-48.0776Q67.7194-47.1031 69.0463-46.9825Q70.3733-46.8618 71.4753-47.9168Q72.5433-49.0188 72.4799-50.3628Q72.4165-51.7068 71.3616-52.7284L48.5305-75.5255Q46.4872-77.5346 44.2734-77.5346Q42.0596-77.5346 40.0172-75.5255L17.2193-52.7284Q16.1644-51.7068 16.084-50.3628Q16.0036-49.0188 17.1056-47.9168ZM67.498-88.3657Q67.498-86.8934 68.4457-85.9729Q69.3934-85.0524 71.0808-85.0524L127.442-85.0524Q133.093-85.0524 136.026-82.1359Q138.96-79.2194 138.96-73.501L138.96-2.6498L127.35-14.7626L119.858-22.1734Q118.804-23.182 117.476-23.3026Q116.149-23.4233 115.094-22.3343Q113.992-21.2663 114.049-19.9223Q114.106-18.5783 115.208-17.5567L138.006 5.24039Q140.002 7.24953 142.239 7.24953Q144.476 7.24953 146.472 5.24039L169.303-17.5567Q170.359-18.5783 170.422-19.9223Q170.485-21.2663 169.417-22.3343Q168.362-23.39 167.035-23.3095Q165.708-23.2291 164.653-22.1734L157.127-14.7626L145.586-2.68388L145.586-73.8299Q145.586-82.7008 141.046-87.2066Q136.507-91.7123 127.603-91.7123L71.0808-91.7123Q69.3934-91.7123 68.429-90.8153Q67.4647-89.9184 67.498-88.3657Z"/>
  </g>
  <g id="Thin-L" transform="matrix(1 0 0 1 763.805 1556)">
   <path d="M16.7019-46.7556Q17.3276-46.1299 18.1123-46.2142Q18.8971-46.2986 19.5941-46.9164L28.2223-55.472L41.417-69.1583L41.417 3.7467Q41.417 11.9361 45.6595 16.139Q49.902 20.3419 58.037 20.3419L118.538 20.3419Q119.443 20.3419 120.021 19.7857Q120.598 19.2295 120.589 18.3662Q120.581 17.5676 120.012 16.9751Q119.443 16.3826 118.538 16.3826L58.1978 16.3826Q51.8391 16.3826 48.6032 13.1552Q45.3672 9.92771 45.3672 3.54417L45.3672-69.1752L58.6423-55.472L67.2693-46.9164Q67.8962-46.3711 68.6803-46.2505Q69.4645-46.1299 70.1628-46.7556Q70.852-47.4539 70.7761-48.2425Q70.7002-49.0312 70.0745-49.6491L46.0317-73.6828Q44.7959-74.9095 43.4278-74.9095Q42.0596-74.9095 40.8251-73.6828L16.7901-49.6491Q16.1644-49.0312 16.084-48.2425Q16.0036-47.4539 16.7019-46.7556ZM64.6455-88.593Q64.6455-87.8022 65.2147-87.2098Q65.7839-86.6173 66.6889-86.6173L127.038-86.6173Q133.396-86.6173 136.632-83.3853Q139.869-80.1533 139.869-73.7788L139.869-1.05945L126.592-14.7626L117.965-23.3091Q117.34-23.8635 116.555-23.9842Q115.77-24.1048 115.144-23.47Q114.446-22.7808 114.491-21.9921Q114.536-21.2034 115.234-20.5856L139.268 3.44817Q140.431 4.67486 141.835 4.67486Q143.24 4.67486 144.402 3.44817L168.444-20.5856Q169.071-21.2034 169.147-21.9921Q169.223-22.7808 168.534-23.47Q167.908-24.0969 167.124-24.0165Q166.339-23.9361 165.713-23.3091L157.077-14.7626L143.819-1.06851L143.819-73.9813Q143.819-82.1707 139.607-86.3737Q135.396-90.5766 127.199-90.5766L66.6889-90.5766Q65.7839-90.5766 65.2108-90.0204Q64.6377-89.4642 64.6455-88.593Z"/>
  </g>
  <g id="Ultralight-L" transform="matrix(1 0 0 1 467.423 1556)">
   <path d="M16.4951-46.1608Q16.901-45.7549 17.4078-45.8328Q17.9146-45.9106 18.4047-46.3217L27.6147-55.4462L41.6626-69.9728L41.6626 3.8501Q41.6626 11.6904 45.75 15.7382Q49.8373 19.7861 57.5845 19.7861L120.141 19.7861Q120.645 19.7861 121.016 19.4044Q121.387 19.0227 121.391 18.4955Q121.396 18.059 121.02 17.6345Q120.645 17.21 120.141 17.21L57.7454 17.21Q51.0245 17.21 47.6335 13.8145Q44.2425 10.4191 44.2425 3.71229L44.2425-69.9639L58.3708-55.4462L67.5795-46.3217Q67.9868-45.9962 68.4929-45.8756Q68.999-45.7549 69.4905-46.1608Q69.9857-46.6524 69.9034-47.1566Q69.8211-47.6608 69.4152-48.0719L44.7518-72.739Q43.9297-73.5649 42.9947-73.5649Q42.0596-73.5649 41.2389-72.739L16.5703-48.0719Q16.1644-47.6608 16.084-47.1566Q16.0036-46.6524 16.4951-46.1608ZM63.1845-88.7094Q63.1845-88.2677 63.5598-87.8433Q63.9352-87.4188 64.4394-87.4188L126.831-87.4188Q133.551-87.4188 136.942-84.0252Q140.334-80.6316 140.334-73.9211L140.334-0.244879L126.204-14.7626L116.996-23.8909Q116.59-24.2126 116.083-24.3332Q115.576-24.4539 115.17-24.0517Q114.679-23.5564 114.717-23.0522Q114.755-22.548 115.247-22.1369L139.914 2.53021Q140.651 3.35613 141.628 3.35613Q142.606 3.35613 143.341 2.53021L168.005-22.1369Q168.412-22.548 168.494-23.0522Q168.577-23.5564 168.081-24.0517Q167.676-24.459 167.169-24.3786Q166.662-24.2982 166.256-23.8909L157.051-14.7626L142.914-0.241127L142.914-74.0589Q142.914-81.8992 138.871-85.947Q134.827-89.9949 126.992-89.9949L64.4394-89.9949Q63.9352-89.9949 63.5624-89.6132Q63.1897-89.2315 63.1845-88.7094Z"/>
  </g>
  <g id="Black-M" transform="matrix(1 0 0 1 2854.19 1126)">
   <path d="M15.1494-43.0265Q17.7862-40.3325 21.2264-40.3119Q24.6666-40.2913 27.4173-43.0369L28.2103-43.8302L33.3633-50.2189L33.3633-5.93804Q33.3633 3.11902 38.4079 8.16099Q43.4525 13.203 52.5208 13.203L83.4588 13.203Q87.3248 13.203 89.8109 10.7592Q92.2969 8.3155 92.2914 4.53399Q92.2859 0.746697 89.8054-1.69689Q87.3248-4.14048 83.4588-4.14048L55.1576-4.14048Q52.943-4.14048 51.8221-5.17023Q50.7013-6.19998 50.7013-8.60235L50.7013-50.2299L55.8595-43.8302L56.6525-43.0369Q59.4035-40.2911 62.8437-40.3118Q66.2838-40.3325 68.9204-43.0265Q71.5515-45.7201 71.6061-49.1345Q71.6607-52.5489 68.9097-55.2944L51.3175-72.8811Q46.9112-77.2819 42.0036-77.2533Q37.096-77.2248 32.7468-72.8811L15.1601-55.2944Q12.409-52.5489 12.4609-49.1345Q12.5128-45.7201 15.1494-43.0265ZM66.1241-74.9257Q66.1241-71.1439 68.6046-68.7004Q71.0851-66.2568 74.9512-66.2568L103.258-66.2568Q105.53-66.2568 106.622-65.2528Q107.714-64.2489 107.714-61.7949L107.714-20.1673L102.556-26.5671L101.763-27.3549Q99.012-30.1062 95.5718-30.0855Q92.1317-30.0647 89.4948-27.3653Q86.8583-24.6771 86.8065-21.2628Q86.7548-17.8484 89.5055-15.1029L107.092 2.48387Q111.499 6.88463 116.406 6.85609Q121.314 6.82754 125.663 2.48387L143.255-15.1029Q146.006-17.8484 145.952-21.2628Q145.897-24.6771 143.266-27.3653Q140.629-30.0592 137.189-30.0826Q133.749-30.1059 130.998-27.3549L130.199-26.5671L125.052-20.1728L125.052-64.4592Q125.052-73.5163 120.005-78.5582Q114.957-83.6002 105.895-83.6002L74.9512-83.6002Q71.0851-83.6002 68.6019-81.1565Q66.1186-78.7127 66.1241-74.9257Z"/>
  </g>
  <g id="Heavy-M" transform="matrix(1 0 0 1 2558.97 1126)">
   <path d="M14.7986-43.7847Q17.109-41.4307 20.1101-41.4357Q23.1113-41.4408 25.5112-43.8221L27.2143-45.5229L32.8594-52.2126L32.8594-5.80979Q32.8594 2.89526 37.6173 7.6438Q42.3752 12.3923 51.1108 12.3923L84.1127 12.3923Q87.5626 12.3923 89.7382 10.2796Q91.9139 8.1668 91.8974 4.84252Q91.881 1.50413 89.7218-0.609785Q87.5626-2.7237 84.1127-2.7237L53.1547-2.7237Q50.599-2.7237 49.279-3.96185Q47.959-5.2 47.959-7.93578L47.959-52.2454L53.6229-45.5229L55.3259-43.8221Q57.7236-41.4431 60.7247-41.4369Q63.7259-41.4307 66.0386-43.7847Q68.3348-46.141 68.368-49.1286Q68.4012-52.1161 66.0035-54.4974L48.6793-71.8051Q44.7456-75.7224 40.3885-75.7006Q36.0315-75.6788 32.1414-71.8051L14.8336-54.4974Q12.436-52.1161 12.4609-49.1286Q12.4859-46.141 14.7986-43.7847ZM63.5445-75.2183Q63.5445-71.8963 65.7037-69.7823Q67.8629-67.6684 71.3128-67.6684L102.287-67.6684Q104.886-67.6684 106.185-66.4439Q107.483-65.2193 107.483-62.4563L107.483-18.1467L101.819-24.8693L100.116-26.5536Q97.7183-28.949 94.7172-28.9552Q91.716-28.9615 89.4056-26.591Q87.0929-24.2511 87.0668-21.2636Q87.0408-18.276 89.4407-15.8947L106.748 1.41299Q110.68 5.33026 115.038 5.30845Q119.396 5.28664 123.284 1.41299L140.608-15.8947Q143.006-18.276 142.973-21.2636Q142.94-24.2511 140.643-26.591Q138.333-28.9451 135.332-28.9482Q132.331-28.9513 129.933-26.5536L128.213-24.8693L122.582-18.1632L122.582-64.5823Q122.582-73.2874 117.818-78.0359Q113.053-82.7845 104.331-82.7845L71.3128-82.7845Q67.8629-82.7845 65.6955-80.6717Q63.5281-78.5589 63.5445-75.2183Z"/>
  </g>
  <g id="Bold-M" transform="matrix(1 0 0 1 2263.92 1126)">
   <path d="M14.4061-44.6329Q16.3514-42.6591 18.8615-42.6929Q21.3715-42.7267 23.379-44.7004L26.1001-47.4164L32.2958-54.4428L32.2958-5.66633Q32.2958 2.64496 36.7329 7.06525Q41.17 11.4856 49.5335 11.4856L84.8442 11.4856Q87.8286 11.4856 89.657 9.74301Q91.4854 8.00047 91.4567 5.18765Q91.4282 2.35143 89.6284 0.6063Q87.8286-1.13883 84.8442-1.13883L50.9142-1.13883Q47.9769-1.13883 46.4342-2.61011Q44.8915-4.08138 44.8915-7.19014L44.8915-54.5L51.1209-47.4164L53.842-44.7004Q55.8444-42.7318 58.3544-42.6955Q60.8645-42.6591 62.8149-44.6329Q64.7366-46.6119 64.7457-49.122Q64.7549-51.6321 62.7525-53.6058L45.7282-70.6015Q42.3231-73.9779 38.5819-73.9636Q34.8407-73.9493 31.4642-70.6015L14.4685-53.6058Q12.4661-51.6321 12.4609-49.122Q12.4557-46.6119 14.4061-44.6329ZM60.6588-75.5455Q60.6588-72.7378 62.4585-70.9927Q64.2583-69.2476 67.2428-69.2476L101.201-69.2476Q104.167-69.2476 105.696-67.7762Q107.224-66.3049 107.224-63.1963L107.224-15.8864L100.995-22.97L98.2735-25.6573Q96.2712-27.6546 93.7611-27.6909Q91.251-27.7273 89.3058-25.7248Q87.3554-23.7746 87.3581-21.2645Q87.3607-18.7543 89.3682-16.7806L106.364 0.215067Q109.764 3.59147 113.508 3.5772Q117.251 3.56292 120.623 0.215067L137.647-16.7806Q139.649-18.7543 139.64-21.2645Q139.631-23.7746 137.709-25.7248Q135.764-27.6987 133.254-27.6792Q130.744-27.6597 128.742-25.6573L125.992-22.97L119.82-15.9151L119.82-64.7201Q119.82-73.0314 115.371-77.4517Q110.922-81.872 102.582-81.872L67.2428-81.872Q64.2583-81.872 62.4442-80.1294Q60.6302-78.3869 60.6588-75.5455Z"/>
  </g>
  <g id="Semibold-M" transform="matrix(1 0 0 1 1968.36 1126)">
   <path d="M14.1356-45.2176Q15.8291-43.506 18.0006-43.5596Q20.1722-43.6131 21.909-45.3059L25.332-48.7218L31.9072-55.9802L31.9072-5.56743Q31.9072 2.4724 36.1232 6.66641Q40.3392 10.8604 48.4461 10.8604L85.3484 10.8604Q88.012 10.8604 89.601 9.37311Q91.19 7.8858 91.1529 5.42559Q91.1159 2.93555 89.564 1.44466Q88.012-0.0462289 85.3484-0.0462289L49.3696-0.0462289Q46.1693-0.0462289 44.473-1.67822Q42.7767-3.31021 42.7767-6.67609L42.7767-56.0543L49.396-48.7218L52.8189-45.3059Q54.5488-43.6203 56.7203-43.5632Q58.8918-43.506 60.5925-45.2176Q62.256-46.9364 62.2486-49.1174Q62.2411-51.2984 60.5113-52.9912L43.6937-69.7717Q40.6531-72.7752 37.3364-72.7662Q34.0197-72.7571 30.9974-69.7717L14.2167-52.9912Q12.4869-51.2984 12.4609-49.1174Q12.4349-46.9364 14.1356-45.2176ZM58.6694-75.7711Q58.6694-73.318 60.2214-71.8271Q61.7733-70.3362 64.4369-70.3362L100.453-70.3362Q103.671-70.3362 105.358-68.6948Q107.046-67.0533 107.046-63.7064L107.046-14.3281L100.426-21.6607L97.0034-25.0394Q95.2736-26.7622 93.102-26.8193Q90.9305-26.8765 89.237-25.1277Q87.5364-23.446 87.5588-21.2651Q87.5813-19.0841 89.3183-17.3913L106.099-0.610777Q109.132 2.39276 112.453 2.38368Q115.773 2.3746 118.788-0.610777L135.606-17.3913Q137.335-19.0841 137.343-21.2651Q137.35-23.446 135.687-25.1277Q133.993-26.8395 131.822-26.8044Q129.65-26.7693 127.92-25.0394L124.46-21.6607L117.915-14.3652L117.915-64.815Q117.915-72.8549 113.684-77.0489Q109.453-81.2429 101.376-81.2429L64.4369-81.2429Q61.7733-81.2429 60.2029-79.7556Q58.6324-78.2683 58.6694-75.7711Z"/>
  </g>
  <g id="Medium-M" transform="matrix(1 0 0 1 1672.51 1126)">
   <path d="M13.9305-45.661Q15.433-44.1482 17.3479-44.2167Q19.2627-44.2853 20.7944-45.7651L24.7496-49.7116L31.6125-57.146L31.6125-5.49244Q31.6125 2.34156 35.6609 6.36398Q39.7093 10.3864 47.6216 10.3864L85.7308 10.3864Q88.151 10.3864 89.5585 9.09263Q90.9661 7.79885 90.9226 5.606Q90.8792 3.37846 89.5151 2.08034Q88.151 0.782226 85.7308 0.782226L48.1984 0.782226Q44.7986 0.782226 42.9859-0.971627Q41.1732-2.72548 41.1732-6.28632L41.1732-57.2329L48.0882-49.7116L52.0432-45.7651Q53.5665-44.294 55.4813-44.2211Q57.3961-44.1482 58.9073-45.661Q60.3751-47.1826 60.3551-49.1139Q60.3351-51.0453 58.812-52.5251L42.1511-69.1425Q39.3868-71.8633 36.392-71.8582Q33.3973-71.853 30.6434-69.1425L14.0258-52.5251Q12.5027-51.0453 12.4609-49.1139Q12.4192-47.1826 13.9305-45.661ZM57.1609-75.9421Q57.1609-73.7579 58.525-72.4598Q59.8891-71.1617 62.3093-71.1617L99.8852-71.1617Q103.295-71.1617 105.103-69.3912Q106.91-67.6208 106.91-64.0932L106.91-13.1466L99.9953-20.6679L96.0403-24.5709Q94.5171-26.0855 92.6023-26.1584Q90.6874-26.2313 89.1848-24.675Q87.6736-23.1969 87.7111-21.2655Q87.7486-19.3341 89.2804-17.8544L105.898-1.23697Q108.653 1.48384 111.652 1.47871Q114.652 1.47357 117.397-1.23697L134.058-17.8544Q135.581-19.3341 135.601-21.2655Q135.621-23.1969 134.153-24.675Q132.651-26.188 130.736-26.1411Q128.821-26.0942 127.298-24.5709L123.299-20.6679L116.471-13.1901L116.471-64.887Q116.471-72.721 112.405-76.7435Q108.339-80.7659 100.462-80.7659L62.3093-80.7659Q59.8891-80.7659 58.5034-79.4721Q57.1176-78.1783 57.1609-75.9421Z"/>
  </g>
  <g id="Regular-M" transform="matrix(1 0 0 1 1376.94 1126)">
   <path d="M13.6629-46.2393Q14.9165-44.9857 16.4965-45.0739Q18.0765-45.162 19.3406-46.364L23.9899-51.0026L31.2282-58.6666L31.2282-5.39462Q31.2282 2.17089 35.0579 5.96952Q38.8876 9.76814 46.5462 9.76814L86.2295 9.76814Q88.3324 9.76814 89.5032 8.72679Q90.6739 7.68544 90.6221 5.84132Q90.5704 3.95616 89.4514 2.90949Q88.3324 1.86282 86.2295 1.86282L46.6708 1.86282Q43.0108 1.86282 41.0463-0.0499823Q39.0817-1.96278 39.0817-5.77793L39.0817-58.7701L46.3823-51.0026L51.0315-46.364Q52.2852-45.1726 53.8652-45.0792Q55.4451-44.9857 56.7094-46.2393Q57.9218-47.5036 57.8854-49.1094Q57.849-50.7153 56.5954-51.9172L40.1389-68.3219Q37.735-70.6739 35.1602-70.6739Q32.5854-70.6739 30.1816-68.3219L13.7769-51.9172Q12.5232-50.7153 12.4609-49.1094Q12.3986-47.5036 13.6629-46.2393ZM55.1934-76.1652Q55.1934-74.3317 56.3125-73.2851Q57.4315-72.2384 59.5343-72.2384L99.1449-72.2384Q102.805-72.2384 104.769-70.2997Q106.734-68.361 106.734-64.5977L106.734-11.6055L99.4332-19.3729L94.7841-23.9598Q93.5304-25.2029 91.9504-25.2964Q90.3704-25.3899 89.1168-24.0844Q87.8526-22.872 87.9096-21.2661Q87.9667-19.6603 89.2309-18.4583L105.636-2.05373Q108.029 0.298304 110.609 0.298304Q113.189 0.298304 115.582-2.05373L132.039-18.4583Q133.292-19.6603 133.329-21.2661Q133.365-22.872 132.153-24.0844Q130.899-25.3382 129.319-25.2759Q127.739-25.2136 126.486-23.9598L121.785-19.3729L114.587-11.6573L114.587-64.981Q114.587-72.5465 110.737-76.3451Q106.887-80.1437 99.2695-80.1437L59.5343-80.1437Q57.4315-80.1437 56.2866-79.1024Q55.1418-78.061 55.1934-76.1652Z"/>
  </g>
  <g id="Light-M" transform="matrix(1 0 0 1 1080.66 1126)">
   <path d="M13.3892-45.4522Q14.3519-44.4895 15.5641-44.569Q16.7762-44.6486 17.7663-45.5768L23.1858-50.9684L31.5534-59.7447L31.5534-5.25778Q31.5534 1.84575 35.1777 5.43911Q38.8019 9.03247 45.9473 9.03247L88.3512 9.03247Q89.9236 9.03247 90.8207 8.22211Q91.7178 7.41175 91.6829 6.01237Q91.6485 4.60645 90.786 3.78215Q89.9236 2.95785 88.3512 2.95785L46.072 2.95785Q41.9328 2.95785 39.7629 0.822677Q37.5931-1.31249 37.5931-5.55542L37.5931-59.814L46.023-50.9684L51.442-45.5768Q52.4051-44.6764 53.6171-44.583Q54.829-44.4895 55.8196-45.4522Q56.7753-46.4428 56.7304-47.6722Q56.6855-48.9016 55.7229-49.8298L38.4451-67.0727Q36.5886-68.8944 34.587-68.8944Q32.5854-68.8944 30.7293-67.0727L13.4859-49.8298Q12.5232-48.9016 12.4609-47.6722Q12.3986-46.4428 13.3892-45.4522ZM53.2598-76.3193Q53.2598-74.9478 54.1223-74.1235Q54.9847-73.2992 56.5571-73.2992L98.8712-73.2992Q103.01-73.2992 105.18-71.1466Q107.35-68.994 107.35-64.786L107.35-10.5274L98.9198-19.3729L93.5007-24.7297Q92.538-25.6649 91.3259-25.7584Q90.1137-25.8518 89.151-24.8543Q88.1604-23.8986 88.209-22.6692Q88.2576-21.4398 89.2482-20.5116L106.491-3.26864Q108.32-1.44701 110.335-1.44701Q112.351-1.44701 114.179-3.26864L131.457-20.5116Q132.42-21.4398 132.465-22.6692Q132.51-23.8986 131.554-24.8543Q130.591-25.8174 129.379-25.7551Q128.167-25.6928 127.204-24.7297L121.75-19.3729L113.39-10.5623L113.39-65.0836Q113.39-72.1871 109.762-75.7805Q106.134-79.3738 98.9958-79.3738L56.5571-79.3738Q54.9847-79.3738 54.105-78.5635Q53.2254-77.7531 53.2598-76.3193Z"/>
  </g>
  <g id="Thin-M" transform="matrix(1 0 0 1 784.528 1126)">
   <path d="M13.0272-44.4112Q13.6051-43.8333 14.3308-43.9014Q15.0565-43.9695 15.6842-44.5358L22.1223-50.9232L31.9834-61.1705L31.9834-5.0768Q31.9834 1.41572 35.336 4.7376Q38.6886 8.05948 45.1553 8.05948L91.1572 8.05948Q92.0281 8.05948 92.5632 7.55463Q93.0984 7.04978 93.0859 6.2386Q93.0743 5.46651 92.5512 4.93631Q92.0281 4.40611 91.1572 4.40611L45.28 4.40611Q40.5069 4.40611 38.0656 1.97684Q35.6243-0.452434 35.6243-5.26113L35.6243-61.1946L45.5477-50.9232L51.9849-44.5358Q52.5637-44.0202 53.2889-43.9267Q54.0142-43.8333 54.6428-44.4112Q55.2589-45.0398 55.2029-45.7712Q55.1468-46.5027 54.5689-47.069L36.2048-65.4207Q35.0722-66.5408 33.8288-66.5408Q32.5854-66.5408 31.4536-65.4207L13.1011-47.069Q12.5232-46.5027 12.4609-45.7712Q12.3986-45.0398 13.0272-44.4112ZM50.7024-76.5231Q50.7024-75.7626 51.2255-75.2324Q51.7486-74.7022 52.6195-74.7022L98.5093-74.7022Q103.281-74.7022 105.723-72.2667Q108.165-69.8312 108.165-65.035L108.165-9.10156L98.2407-19.3729L91.8034-25.7479Q91.2255-26.2759 90.4998-26.3694Q89.7741-26.4629 89.1963-25.8725Q88.5677-25.2564 88.605-24.5249Q88.6424-23.7934 89.271-23.2271L107.623-4.87546Q108.705-3.75534 109.973-3.75534Q111.242-3.75534 112.323-4.87546L130.687-23.2271Q131.266-23.7934 131.322-24.5249Q131.378-25.2564 130.762-25.8725Q130.184-26.4513 129.458-26.3889Q128.733-26.3266 128.155-25.7479L121.705-19.3729L111.806-9.11401L111.806-65.2193Q111.806-71.7118 108.472-75.0337Q105.138-78.3556 98.6339-78.3556L52.6195-78.3556Q51.7486-78.3556 51.2197-77.8508Q50.6908-77.3459 50.7024-76.5231Z"/>
  </g>
  <g id="Ultralight-M" transform="matrix(1 0 0 1 488.112 1126)">
   <path d="M12.8418-43.8779Q13.2226-43.4971 13.6991-43.5594Q14.1757-43.6217 14.6178-44.0026L21.5776-50.9L32.2037-61.9008L32.2037-4.9841Q32.2037 1.19546 35.4171 4.37829Q38.6306 7.56112 44.7497 7.56112L92.5944 7.56112Q93.106 7.56112 93.4558 7.21275Q93.8055 6.86438 93.8045 6.35448Q93.8046 5.90703 93.4553 5.52747Q93.106 5.1479 92.5944 5.1479L44.8743 5.1479Q39.7766 5.1479 37.1963 2.56799Q34.6159-0.0119151 34.6159-5.11039L34.6159-61.9017L45.3043-50.9L52.263-44.0026Q52.6449-43.6841 53.1209-43.5906Q53.5969-43.4971 54.0401-43.8779Q54.4823-44.3211 54.4205-44.7976Q54.3586-45.2741 53.9778-45.655L35.0573-64.5745Q34.2956-65.3353 33.4405-65.3353Q32.5854-65.3353 31.8246-64.5745L12.904-45.655Q12.5232-45.2741 12.4609-44.7976Q12.3986-44.3211 12.8418-43.8779ZM49.3926-76.6275Q49.3926-76.18 49.7419-75.8004Q50.0911-75.4209 50.6027-75.4209L98.3239-75.4209Q103.42-75.4209 106.001-72.8405Q108.582-70.2601 108.582-65.1626L108.582-8.37125L97.8929-19.3729L90.9341-26.2694Q90.5533-26.5889 90.0767-26.6824Q89.6002-26.7758 89.2194-26.394Q88.7762-25.9518 88.8079-25.4753Q88.8395-24.9989 89.2827-24.618L108.202-5.69846Q108.902-4.93765 109.788-4.93765Q110.674-4.93765 111.373-5.69846L130.293-24.618Q130.675-24.9989 130.737-25.4753Q130.799-25.9518 130.356-26.394Q129.976-26.7759 129.499-26.7136Q129.022-26.6513 128.642-26.2694L121.682-19.3729L110.994-8.37221L110.994-65.2889Q110.994-71.4684 107.811-74.6512Q104.628-77.8341 98.4485-77.8341L50.6027-77.8341Q50.0911-77.8341 49.7419-77.4857Q49.3926-77.1373 49.3926-76.6275Z"/>
  </g>
  <g id="Black-S" transform="matrix(1 0 0 1 2870.9 696)">
   <path d="M11.9629-41.0645Q14.1113-38.8672 16.9189-38.8428Q19.7266-38.8184 21.9727-41.0645L22.3633-41.4551L26.3184-46.4355L26.3184-12.3047Q26.3184-5.12695 30.3467-1.09863Q34.375 2.92969 41.5527 2.92969L65.332 2.92969Q68.457 2.92969 70.4834 0.927734Q72.5098-1.07422 72.5098-4.15039Q72.5098-7.22656 70.4834-9.22852Q68.457-11.2305 65.332-11.2305L43.7988-11.2305Q42.1387-11.2305 41.3086-11.9873Q40.4785-12.7441 40.4785-14.5508L40.4785-46.4355L44.4336-41.4551L44.8242-41.0645Q47.0703-38.8184 49.8779-38.8428Q52.6855-38.8672 54.834-41.0645Q56.9824-43.2617 57.0312-46.0449Q57.0801-48.8281 54.834-51.0742L40.918-64.9902Q37.3535-68.5547 33.374-68.5303Q29.3945-68.5059 25.8789-64.9902L11.9629-51.0742Q9.7168-48.8281 9.76562-46.0449Q9.81445-43.2617 11.9629-41.0645ZM52.4902-66.2598Q52.4902-63.1836 54.5166-61.1816Q56.543-59.1797 59.668-59.1797L81.2012-59.1797Q82.9102-59.1797 83.7158-58.4473Q84.5215-57.7148 84.5215-55.8594L84.5215-23.9746L80.5664-28.9551L80.1758-29.3457Q77.9297-31.5918 75.1221-31.5674Q72.3145-31.543 70.166-29.3457Q68.0176-27.1484 67.9688-24.3652Q67.9199-21.582 70.166-19.3359L84.082-5.41992Q87.6465-1.85547 91.626-1.87988Q95.6055-1.9043 99.1211-5.41992L113.037-19.3359Q115.283-21.582 115.234-24.3652Q115.186-27.1484 113.037-29.3457Q110.889-31.543 108.081-31.5674Q105.273-31.5918 103.027-29.3457L102.637-28.9551L98.6816-23.9746L98.6816-58.1055Q98.6816-65.2832 94.6533-69.3115Q90.625-73.3398 83.4473-73.3398L59.668-73.3398Q56.543-73.3398 54.5166-71.3379Q52.4902-69.3359 52.4902-66.2598Z"/>
  </g>
  <g id="Heavy-S" transform="matrix(1 0 0 1 2575.4 696)">
   <path d="M11.6978-41.8135Q13.6043-39.8698 16.0834-39.8685Q18.5626-39.8671 20.5436-41.8366L21.6142-42.9072L25.8459-48.0029L25.8459-12.2125Q25.8459-5.27677 29.6552-1.47318Q33.4646 2.33042 40.4233 2.33042L65.6201 2.33042Q68.457 2.33042 70.2529 0.582Q72.0488-1.16641 72.0373-3.90838Q72.0257-6.66186 70.2414-8.41028Q68.457-10.1587 65.6201-10.1587L42.1624-10.1587Q40.2717-10.1587 39.2976-11.0653Q38.3234-11.972 38.3234-14.0091L38.3234-48.0259L42.5666-42.9072L43.6372-41.8366Q45.6182-39.8671 48.0974-39.8685Q50.5766-39.8698 52.483-41.8135Q54.3779-43.7573 54.4094-46.2236Q54.441-48.6898 52.4599-50.6593L38.8781-64.2296Q35.6479-67.4483 32.066-67.4297Q28.4841-67.411 25.2912-64.2296L11.7209-50.6593Q9.73985-48.6898 9.76562-46.2236Q9.7914-43.7573 11.6978-41.8135ZM50.5311-66.4903Q50.5311-63.7483 52.3154-61.9999Q54.0998-60.2515 56.9367-60.2515L80.406-60.2515Q82.3339-60.2515 83.2894-59.3577Q84.2449-58.4639 84.2449-56.401L84.2449-22.3842L80.0017-27.503L78.9311-28.562Q76.9501-30.5431 74.4709-30.5417Q71.9918-30.5403 70.0853-28.5851Q68.1789-26.6529 68.1531-24.1866Q68.1274-21.7203 70.1084-19.7508L83.6787-6.18054Q86.9089-2.96182 90.4908-2.98047Q94.0727-2.99912 97.2657-6.18054L110.847-19.7508Q112.828-21.7203 112.797-24.1866Q112.765-26.6529 110.871-28.5851Q108.964-30.5288 106.485-30.5359Q104.006-30.5431 102.025-28.562L100.943-27.503L96.7225-22.3958L96.7225-58.1977Q96.7225-65.1334 92.9074-68.937Q89.0922-72.7406 82.145-72.7406L56.9367-72.7406Q54.0998-72.7406 52.3097-70.9922Q50.5196-69.2437 50.5311-66.4903Z"/>
  </g>
  <g id="Bold-S" transform="matrix(1 0 0 1 2280.05 696)">
   <path d="M11.4014-42.6514Q13.0371-40.9912 15.1489-41.0156Q17.2607-41.04 18.9453-42.7002L20.7764-44.5312L25.3174-49.7559L25.3174-12.1094Q25.3174-5.44434 28.8818-1.89209Q32.4463 1.66016 39.1602 1.66016L65.9424 1.66016Q68.457 1.66016 69.9951 0.195312Q71.5332-1.26953 71.5088-3.6377Q71.4844-6.03027 69.9707-7.49512Q68.457-8.95996 65.9424-8.95996L40.332-8.95996Q38.1836-8.95996 37.0483-10.0342Q35.9131-11.1084 35.9131-13.4033L35.9131-49.8047L40.4785-44.5312L42.3096-42.7002Q43.9941-41.04 46.106-41.0156Q48.2178-40.9912 49.8535-42.6514Q51.4648-44.3115 51.4771-46.4233Q51.4893-48.5352 49.8047-50.1953L36.5967-63.3789Q33.7402-66.2109 30.603-66.1987Q27.4658-66.1865 24.6338-63.3789L11.4502-50.1953Q9.76562-48.5352 9.76562-46.4233Q9.76562-44.3115 11.4014-42.6514ZM48.3398-66.748Q48.3398-64.3799 49.8535-62.915Q51.3672-61.4502 53.8818-61.4502L79.5166-61.4502Q81.6895-61.4502 82.8125-60.376Q83.9355-59.3018 83.9355-57.0068L83.9355-20.6055L79.3701-25.8789L77.5391-27.6855Q75.8545-29.3701 73.7427-29.3945Q71.6309-29.4189 69.9951-27.7344Q68.3594-26.0986 68.3594-23.9868Q68.3594-21.875 70.0439-20.2148L83.2275-7.03125Q86.084-4.19922 89.2212-4.21143Q92.3584-4.22363 95.1904-7.03125L108.398-20.2148Q110.083-21.875 110.071-23.9868Q110.059-26.0986 108.447-27.7344Q106.812-29.3945 104.7-29.3823Q102.588-29.3701 100.903-27.6855L99.0479-25.8789L94.5312-20.6299L94.5312-58.3008Q94.5312-64.9658 90.9546-68.5181Q87.3779-72.0703 80.6885-72.0703L53.8818-72.0703Q51.3672-72.0703 49.8413-70.6055Q48.3154-69.1406 48.3398-66.748Z"/>
  </g>
  <g id="Semibold-S" transform="matrix(1 0 0 1 1984.28 696)">
   <path d="M11.197-43.229Q12.6461-41.7644 14.5046-41.8065Q16.3632-41.8487 17.8434-43.2956L20.1987-45.651L24.953-50.9645L24.953-12.0383Q24.953-5.55986 28.3486-2.18091Q31.7442 1.19805 38.2893 1.19805L66.1646 1.19805Q68.457 1.19805 69.8174-0.0712891Q71.1777-1.34062 71.1444-3.45107Q71.1111-5.59482 69.7841-6.86416Q68.457-8.1335 66.1646-8.1335L39.0701-8.1335Q36.7439-8.1335 35.4976-9.32324Q34.2513-10.513 34.2513-12.9856L34.2513-51.0311L39.0389-45.651L41.3942-43.2956Q42.8744-41.8487 44.733-41.8065Q46.5915-41.7644 48.0406-43.229Q49.4564-44.6937 49.4553-46.5611Q49.4542-48.4285 47.974-49.8754L35.0237-62.7924Q32.425-65.3578 29.5944-65.35Q26.7638-65.3423 24.1806-62.7924L11.2636-49.8754Q9.7834-48.4285 9.76562-46.5611Q9.74785-44.6937 11.197-43.229ZM46.8291-66.9258Q46.8291-64.8153 48.1562-63.546Q49.4832-62.2767 51.7757-62.2767L78.9034-62.2767Q81.2451-62.2767 82.4837-61.078Q83.7223-59.8794 83.7223-57.4245L83.7223-19.3791L78.9347-24.7592L76.5793-27.0813Q75.0991-28.5614 73.2406-28.6036Q71.382-28.6458 69.9329-27.1479Q68.4838-25.7165 68.5016-23.8491Q68.5193-21.9816 69.9995-20.5348L82.9165-7.61777Q85.5152-5.05234 88.3458-5.06011Q91.1765-5.06787 93.7597-7.61777L106.71-20.5348Q108.19-21.9816 108.191-23.8491Q108.192-25.7165 106.777-27.1479Q105.327-28.6125 103.469-28.587Q101.61-28.5614 100.13-27.0813L97.7415-24.7592L93.0205-19.4124L93.0205-58.3719Q93.0205-64.8503 89.6083-68.2292Q86.196-71.6082 79.6843-71.6082L51.7757-71.6082Q49.4832-71.6082 48.1395-70.3389Q46.7958-69.0695 46.8291-66.9258Z"/>
  </g>
  <g id="Medium-S" transform="matrix(1 0 0 1 1688.28 696)">
   <path d="M11.042-43.667Q12.3496-42.3506 14.0161-42.4062Q15.6826-42.4619 17.0078-43.7471L19.7607-46.5L24.6768-51.8809L24.6768-11.9844Q24.6768-5.64746 27.9443-2.3999Q31.2119 0.847656 37.6289 0.847656L66.333 0.847656Q68.457 0.847656 69.6826-0.273438Q70.9082-1.39453 70.8682-3.30957Q70.8281-5.26465 69.6426-6.38574Q68.457-7.50684 66.333-7.50684L38.1133-7.50684Q35.6523-7.50684 34.3218-8.78418Q32.9912-10.0615 32.9912-12.6689L32.9912-51.9609L37.9473-46.5L40.7002-43.7471Q42.0254-42.4619 43.6919-42.4062Q45.3584-42.3506 46.666-43.667Q47.9336-44.9834 47.9224-46.6655Q47.9111-48.3477 46.5859-49.6328L33.8311-62.3477Q31.4277-64.7109 28.8296-64.7065Q26.2314-64.7021 23.8369-62.3477L11.1221-49.6328Q9.79688-48.3477 9.76562-46.6655Q9.73438-44.9834 11.042-43.667ZM45.6836-67.0605Q45.6836-65.1455 46.8691-64.0244Q48.0547-62.9033 50.1787-62.9033L78.4385-62.9033Q80.9082-62.9033 82.2344-61.6104Q83.5605-60.3174 83.5605-57.7412L83.5605-18.4492L78.6045-23.9102L75.8516-26.623Q74.5264-27.9482 72.8599-28.0039Q71.1934-28.0596 69.8857-26.7031Q68.5781-25.4268 68.6094-23.7446Q68.6406-22.0625 69.9658-20.7773L82.6807-8.0625Q85.084-5.69922 87.6821-5.70361Q90.2803-5.70801 92.6748-8.0625L105.43-20.7773Q106.755-22.0625 106.766-23.7446Q106.777-25.4268 105.51-26.7031Q104.202-28.0195 102.536-27.9839Q100.869-27.9482 99.5439-26.623L96.751-23.9102L91.875-18.4893L91.875-58.4258Q91.875-64.7627 88.5874-68.0103Q85.2998-71.2578 78.9229-71.2578L50.1787-71.2578Q48.0547-71.2578 46.8491-70.1367Q45.6436-69.0156 45.6836-67.0605Z"/>
  </g>
  <g id="Regular-S" transform="matrix(1 0 0 1 1392.5 696)">
   <path d="M10.8398-44.2383Q11.9629-43.1152 13.3789-43.1885Q14.7949-43.2617 15.918-44.3359L19.1895-47.6074L24.3164-53.0762L24.3164-11.9141Q24.3164-5.76172 27.417-2.68555Q30.5176 0.390625 36.7676 0.390625L66.5527 0.390625Q68.457 0.390625 69.5068-0.537109Q70.5566-1.46484 70.5078-3.125Q70.459-4.83398 69.458-5.76172Q68.457-6.68945 66.5527-6.68945L36.8652-6.68945Q34.2285-6.68945 32.7881-8.08105Q31.3477-9.47266 31.3477-12.2559L31.3477-53.1738L36.5234-47.6074L39.7949-44.3359Q40.918-43.2617 42.334-43.1885Q43.75-43.1152 44.873-44.2383Q45.9473-45.3613 45.9229-46.8018Q45.8984-48.2422 44.7754-49.3164L32.2754-61.7676Q30.127-63.8672 27.832-63.8672Q25.5371-63.8672 23.3887-61.7676L10.9375-49.3164Q9.81445-48.2422 9.76562-46.8018Q9.7168-45.3613 10.8398-44.2383ZM44.1895-67.2363Q44.1895-65.5762 45.1904-64.6484Q46.1914-63.7207 48.0957-63.7207L77.832-63.7207Q80.4688-63.7207 81.9092-62.3047Q83.3496-60.8887 83.3496-58.1543L83.3496-17.2363L78.1738-22.8027L74.9023-26.0254Q73.7793-27.1484 72.3633-27.2217Q70.9473-27.2949 69.8242-26.123Q68.7012-25.0488 68.75-23.6084Q68.7988-22.168 69.9219-21.0938L82.373-8.64258Q84.5215-6.54297 86.8164-6.54297Q89.1113-6.54297 91.2598-8.64258L103.76-21.0938Q104.883-22.168 104.907-23.6084Q104.932-25.0488 103.857-26.123Q102.734-27.2461 101.318-27.1973Q99.9023-27.1484 98.7793-26.0254L95.459-22.8027L90.3809-17.2852L90.3809-58.4961Q90.3809-64.6484 87.2559-67.7246Q84.1309-70.8008 77.9297-70.8008L48.0957-70.8008Q46.1914-70.8008 45.166-69.873Q44.1406-68.9453 44.1895-67.2363Z"/>
  </g>
  <g id="Light-S" transform="matrix(1 0 0 1 1096.17 696)">
   <path d="M10.5977-43.542Q11.4634-42.6763 12.554-42.7419Q13.6447-42.8075 14.5253-43.6396L18.4781-47.5772L24.604-54.0298L24.604-11.793Q24.604-6.04935 27.5229-3.15475Q30.4418-0.260162 36.2378-0.260162L68.4296-0.260162Q69.8647-0.260162 70.6724-0.983556Q71.4801-1.70695 71.4462-2.97368Q71.4127-4.25873 70.6387-4.98975Q69.8647-5.72077 68.4296-5.72077L36.3355-5.72077Q33.2748-5.72077 31.6528-7.30909Q30.0308-8.8974 30.0308-12.059L30.0308-54.0972L36.2055-47.5772L40.1581-43.6396Q41.024-42.8228 42.1145-42.7495Q43.205-42.6763 44.0859-43.542Q44.9331-44.4229 44.9011-45.5303Q44.8692-46.6377 44.0036-47.4698L30.777-60.6626Q29.1128-62.293 27.3249-62.293Q25.5371-62.293 23.8731-60.6626L10.6801-47.4698Q9.81445-46.6377 9.76562-45.5303Q9.7168-44.4229 10.5977-43.542ZM42.4789-67.3726Q42.4789-66.1212 43.2529-65.3901Q44.0269-64.6591 45.462-64.6591L77.5899-64.6591Q80.6503-64.6591 82.2725-63.0539Q83.8946-61.4487 83.8946-58.3209L83.8946-16.2827L77.7196-22.8027L73.7671-26.7064Q72.9014-27.5571 71.8108-27.6304Q70.7202-27.7036 69.8545-26.8041Q68.9735-25.957 69.0149-24.8496Q69.0562-23.7422 69.9371-22.9101L83.1299-9.71731Q84.7788-8.0869 86.5743-8.0869Q88.3698-8.0869 90.0185-9.71731L103.245-22.9101Q104.111-23.7422 104.143-24.8496Q104.175-25.957 103.328-26.8041Q102.462-27.67 101.371-27.6212Q100.281-27.5724 99.4151-26.7064L95.4287-22.8027L89.3214-16.3165L89.3214-58.5869Q89.3214-64.3305 86.3931-67.2251Q83.4648-70.1197 77.6876-70.1197L45.462-70.1197Q44.0269-70.1197 43.2362-69.3963Q42.4454-68.6729 42.4789-67.3726Z"/>
  </g>
  <g id="Thin-S" transform="matrix(1 0 0 1 799.97 696)">
   <path d="M10.2775-42.621Q10.8028-42.0958 11.4631-42.1513Q12.1234-42.2068 12.6835-42.7187L17.5374-47.5371L24.9844-55.2912L24.9844-11.6329Q24.9844-6.42976 27.663-3.77532Q30.3416-1.12088 35.5372-1.12088L70.9118-1.12088Q71.7263-1.12088 72.2138-1.57402Q72.7013-2.02715 72.6874-2.77356Q72.674-3.49791 72.2002-3.96876Q71.7263-4.43962 70.9118-4.43962L35.6349-4.43962Q32.0135-4.43962 30.1514-6.2881Q28.2892-8.13658 28.2892-11.7987L28.2892-55.3185L35.7851-47.5371L40.6384-42.7187Q41.1643-42.2422 41.8242-42.169Q42.4842-42.0958 43.0449-42.621Q43.5917-43.1818 43.5499-43.8487Q43.508-44.5157 42.9827-45.0276L28.7952-59.2011Q27.7714-60.211 26.6542-60.211Q25.5371-60.211 24.5139-59.2011L10.3397-45.0276Q9.81445-44.5157 9.76562-43.8487Q9.7168-43.1818 10.2775-42.621ZM40.2167-67.5529Q40.2167-66.842 40.6905-66.3711Q41.1643-65.9002 41.9788-65.9002L77.2697-65.9002Q80.8905-65.9002 82.7529-64.0448Q84.6154-62.1893 84.6154-58.5412L84.6154-15.0213L77.1189-22.8027L72.2656-27.6072Q71.7403-28.0976 71.0801-28.1709Q70.4198-28.2441 69.8945-27.7048Q69.3338-27.1581 69.3652-26.4911Q69.3966-25.8242 69.9573-25.3123L84.1309-11.1387Q85.1192-10.1289 86.2541-10.1289Q87.389-10.1289 88.3767-11.1387L102.564-25.3123Q103.09-25.8242 103.132-26.4911Q103.174-27.1581 102.627-27.7048Q102.102-28.2307 101.442-28.1819Q100.781-28.1331 100.256-27.6072L95.3887-22.8027L87.9202-15.0353L87.9202-58.707Q87.9202-63.9101 85.252-66.5645Q82.5839-69.219 77.3674-69.219L41.9788-69.219Q41.1643-69.219 40.6838-68.7658Q40.2033-68.3127 40.2167-67.5529Z"/>
  </g>
  <g id="Ultralight-S" transform="matrix(1 0 0 1 503.52 696)">
   <path d="M10.1135-42.1494Q10.4645-41.7984 10.9043-41.8488Q11.3441-41.8991 11.7401-42.247L17.0555-47.5166L25.1793-55.9372L25.1793-11.5509Q25.1793-6.6246 27.7348-4.09317Q30.2902-1.56174 35.1784-1.56174L72.1832-1.56174Q72.6799-1.56174 73.0034-1.87645Q73.3269-2.19116 73.3231-2.67105Q73.32-3.10822 73-3.44582Q72.6799-3.78342 72.1832-3.78342L35.276-3.78342Q31.3675-3.78342 29.3823-5.76515Q27.3972-7.74689 27.3972-11.6653L27.3972-55.9441L35.5698-47.5166L40.8844-42.247Q41.2361-41.9449 41.6756-41.8716Q42.115-41.7984 42.5117-42.1494Q42.9047-42.5461 42.8577-42.9874Q42.8108-43.4288 42.4599-43.7767L27.7802-58.4526Q27.0844-59.1446 26.3107-59.1446Q25.5371-59.1446 24.8421-58.4526L10.1654-43.7767Q9.81445-43.4288 9.76562-42.9874Q9.7168-42.5461 10.1135-42.1494ZM39.0579-67.6453Q39.0579-67.2112 39.378-66.8736Q39.698-66.5359 40.1947-66.5359L77.1057-66.5359Q81.0135-66.5359 82.999-64.5523Q84.9846-62.5687 84.9846-58.654L84.9846-14.3753L76.8112-22.8027L71.4966-28.0685Q71.1456-28.3745 70.7058-28.4477Q70.266-28.521 69.915-28.1662Q69.5183-27.7733 69.5446-27.3319Q69.5709-26.8906 69.9677-26.5427L84.6436-11.8668Q85.2936-11.1748 86.0901-11.1748Q86.8866-11.1748 87.5359-11.8668L102.216-26.5427Q102.567-26.8906 102.614-27.3319Q102.661-27.7733 102.268-28.1662Q101.917-28.5179 101.477-28.4691Q101.038-28.4203 100.687-28.0685L95.3682-22.8027L87.2025-14.3791L87.2025-58.7685Q87.2025-63.6948 84.6676-66.2262Q82.1327-68.7576 77.2034-68.7576L40.1947-68.7576Q39.698-68.7576 39.3764-68.4429Q39.0549-68.1282 39.0579-67.6453Z"/>
  </g>
 </g>
</svg>
